<svg xmlns="http://www.w3.org/2000/svg" viewBox="0 0 1024 1024">
  <path fill="white" d="M393.382 191.531c-11.453 5.022-11.694 23.438-.382 29.177 4.242 2.152 5.177 2.239 16.332 1.516 7.792-.505 12.057-.418 12.49.255 1.063 1.653 6.566 21.747 15.615 57.021 13.197 51.442 12.994 50.904 20.159 53.312 7.37 2.477 147.809 2.159 152.895-.346 4.923-2.425 7.692-7.156 10.507-17.952 1.15-4.408 3.618-13.189 5.486-19.514 14.266-48.31 17.265-63.619 13.63-69.58-4.208-6.901.944-6.559-101.724-6.749l-92.474-.171-.548-2.5c-3.212-14.66-6.118-20.744-10.724-22.452-7.965-2.952-36.005-4.323-41.262-2.017m70.774 50.216c-10.242.289-11.279.487-10.675 2.037.368.944 1.796 5.766 3.174 10.716 1.378 4.95 2.669 9.534 2.869 10.187.419 1.364 22.354 2.331 23.159 1.021.268-.436.166-6.174-.226-12.75L481.743 241l-3.121.214c-1.717.117-8.227.357-14.466.533m38.065 11.85.279 12.412 10.25.381 10.25.382v-25.458l-10.529-.065-10.529-.064.279 12.412m48.029-11.853-8.25.337.006 4.209c.003 2.316.295 7.923.648 12.46l.642 8.25H564v-26l-2.75.204c-1.513.111-6.462.355-11 .54M585 254v12l10.5.15c5.775.083 11.054.195 11.731.25.736.06 2.336-3.919 3.98-9.9 1.512-5.5 3.031-11.012 3.377-12.25l.629-2.25H585v12m-175.002 4.951c-1.374.984-10.373 5.515-19.998 10.068-9.625 4.554-33.475 16.516-53 26.582-19.525 10.066-43.825 22.195-54 26.953-19.782 9.25-23.448 11.8-25.001 17.389-1.595 5.742-1.314 317.874.289 321.057.843 1.673 4.725 4.24 11.736 7.759 5.762 2.893 41.526 20.73 79.476 39.639 37.95 18.908 86.967 43.67 108.927 55.025C499.702 784.767 528.953 799 531.542 799c1.342 0 48.559-23.133 50.958-24.965 3.129-2.39 152.15-78.107 182.5-92.727 30.044-14.473 38.258-18.891 39.84-21.424 2.301-3.683 1.685-320.634-.629-323.772-1.124-1.526-25.776-14.472-68.235-35.833-36.562-18.395-69.553-35.208-73.314-37.362-7.618-4.364-8.662-4.64-8.662-2.294 0 .893-1.597 6.396-3.549 12.228-3.321 9.926-3.437 10.686-1.808 11.877.956.7 2.119 1.272 2.584 1.272 1.155 0 47.716 23.024 78.443 38.789 13.844 7.103 27.794 13.951 31 15.218 3.207 1.268 6.231 2.658 6.721 3.09.491.432-10.534 6.316-24.5 13.075-13.965 6.76-46.541 22.814-72.391 35.676-60.611 30.16-120.766 59.788-131.23 64.636l-8.23 3.813-7.77-3.563c-12.249-5.617-200.389-99.258-214.047-106.537-6.753-3.598-11.928-6.878-11.5-7.288 1.125-1.079 83.627-42.162 104.277-51.926 9.625-4.551 17.573-8.322 17.662-8.379.271-.173-6.327-24.602-6.761-25.037-.223-.222-1.529.401-2.903 1.384m62.347 24.99-9.156.559 2.353 9c1.294 4.95 2.958 10.725 3.698 12.833l1.346 3.833 6.207.167 6.208.167-.001-13.75c0-7.562-.337-13.664-.75-13.559-.413.106-4.87.443-9.905.75m30.062.209c-.221.357-.113 6.657.241 14l.642 13.35h18.712l-.002-14-.002-14h-9.595c-5.277 0-9.776.292-9.996.65m39.874 12.948c.32 7.204.725 13.222.901 13.373.175.151 4.67.492 9.989.758 11.545.578 10.795 1.651 10.815-15.479L564 284h-22.302l.583 13.098m41.401-7.325c-.332 3.174-.337 8.948-.012 12.831l.592 7.059 5.871.971 5.871.971 1.951-5.213c1.563-4.178 6.045-20.511 6.045-22.029 0-.2-4.436-.363-9.858-.363h-9.857l-.603 5.773m-9.762 56.29c-13.94 2.198-26.254 15.766-26.306 28.983-.122 31.197 43.917 42.966 57.504 15.367 11.293-22.94-6.506-48.242-31.198-44.35m-99.701 2.515c-15.92 7.933-21.483 25.766-13.147 42.14 8.652 16.994 34.083 20.262 47.624 6.12 8.921-9.317 11.319-23.563 5.786-34.38-7.148-13.978-26.607-20.685-40.263-13.88M778 366.125c-1.925 1.059-13.4 6.581-25.5 12.273-12.1 5.692-41.575 20.175-65.5 32.185-23.925 12.01-58.35 29.062-76.5 37.893s-40.733 19.874-50.185 24.54l-17.184 8.484-.066 143.813L543 769.126l17.75-9.195c9.763-5.058 21.8-11.333 26.75-13.944 9.181-4.843 24.725-12.825 73.5-37.739 15.125-7.726 37.4-19.175 49.5-25.441C742.858 666.048 779.458 648 781.082 648c1.261 0 1.817-233.088.657-275.15l-.239-8.649-3.5 1.924M282 506.37v141.37l67.25 33.786c36.988 18.582 85.7 43.319 108.25 54.972 22.55 11.652 45.05 23.146 50 25.543 4.95 2.397 9.337 4.53 9.75 4.742.413.211.75-64.229.75-143.2C518 504.782 517.77 480 516.67 480c-.731 0-19.025-8.811-40.652-19.58-21.626-10.768-41.681-20.623-44.565-21.898l-5.244-2.319-.493 2.648c-.272 1.457-.338 10.853-.148 20.881.323 16.952.227 18.165-1.361 17.281-.939-.523-8.081-2.083-15.872-3.468-7.791-1.384-17.241-3.698-21-5.141-3.759-1.444-10.144-3.359-14.188-4.255l-7.353-1.63.612-6.01c.337-3.305.89-15.706 1.229-27.557l.618-21.548-42.723-21.202C302.032 374.541 282.625 365 282.403 365c-.221 0-.403 63.616-.403 141.37m200-139.159c-5.012 3.374-6.29 8.782-2.926 12.382 6.102 6.532 13.485 6.497 16.621-.08 4.485-9.404-5.147-18.056-13.695-12.302m89.4 2.189c-5.113 5.113-4.089 10.641 2.611 14.106 4.613 2.385 8.74 1.896 12.066-1.429 3.502-3.502 3.685-6.341.691-10.71-4.334-6.325-10.252-7.083-15.368-1.967m89.475 82.464c-8.382 5.316-9.117 6.987-8.72 19.836l.345 11.2-4.236 2.3c-36.285 19.703-52.091 70.196-29.266 93.493 5.805 5.925 17.666 7.169 46.647 4.89 12.786-1.006 17.137.483 19.267 6.593 7.903 22.672-36.104 38.212-60.272 21.284-3.371-2.361-5.125-1.722-7.653 2.79-1.31 2.337-5.668 9.317-9.684 15.51-8.262 12.737-8.592 14.171-4.053 17.577 9.92 7.445 21.093 10.663 37.019 10.663h11.48l.449 8.551c.725 13.819 7.162 17.623 17.39 10.278 7.487-5.377 8.408-7.716 8.439-21.447l.027-11.882 6.333-2.828c27.636-12.338 45.826-53.13 35.647-79.938-6.326-16.66-19.976-21.312-50.534-17.223-17.834 2.387-21 1.565-23.534-6.113-5.781-17.518 23.446-34.639 46.688-27.35 8.365 2.624 9.536 2.36 12.846-2.896 1.1-1.747 5.531-8.584 9.847-15.194 8.858-13.567 8.855-13.298.247-17.37-9.093-4.302-26.912-5.821-36.094-3.078-1.92.573-1.987.2-1.685-9.397l.315-9.994-3.015-1.56c-4.546-2.35-9.139-1.929-14.24 1.305m-312.471 35.099-2.095.858.221 64.34c.245 70.902.174 70.083 6.342 73.273 4.459 2.306 6.638 1.937 9.641-1.631l2.69-3.198-.351-63.649c-.295-53.289-.584-63.929-1.779-65.368-3.048-3.673-10.928-6.157-14.669-4.625m41.824 15.267c-3.382 1.63-3.332.511-3.019 67.928l.291 62.658 3.101 3.842c4.252 5.268 8.702 5.723 12.917 1.322l2.982-3.112-.239-63.568c-.26-69.239.134-65.038-6.404-68.373-4.22-2.153-6.296-2.303-9.629-.697m48.237 19.731c-4.679 1.875-4.573.427-4.774 65.213-.212 68.162-.299 67.161 6.228 71.553 3.867 2.603 6.303 2.303 9.955-1.226l2.374-2.294-.068-63.354c-.037-34.844-.093-63.629-.124-63.967-.242-2.637-10.565-7.138-13.591-5.925" fill-rule="evenodd"/>
</svg>